<?xml version="1.0" standalone="no"?>
<!DOCTYPE svg PUBLIC "-//W3C//DTD SVG 20010904//EN"
 "http://www.w3.org/TR/2001/REC-SVG-20010904/DTD/svg10.dtd">
<svg version="1.0" xmlns="http://www.w3.org/2000/svg"
 width="1200.000000pt" height="1200.000000pt" viewBox="0 0 1200.000000 1200.000000"
 preserveAspectRatio="xMidYMid meet">

<g transform="translate(0.000000,1200.000000) scale(0.100000,-0.100000)"
fill="#000000" stroke="none">
<path d="M0 6000 l0 -6000 6000 0 6000 0 0 6000 0 6000 -6000 0 -6000 0 0
-6000z m6206 1921 c149 -50 225 -95 323 -194 138 -140 205 -288 218 -487 9
-151 -30 -309 -109 -434 -77 -122 -240 -259 -362 -305 -198 -74 -421 -65 -601
24 -197 97 -343 274 -401 485 -28 102 -26 302 4 400 85 272 315 478 592 531
76 14 267 3 336 -20z m-1106 -1246 l0 -75 -1350 0 -1350 0 0 75 0 75 1350 0
1350 0 0 -75z m4500 0 l0 -75 -1350 0 -1350 0 0 75 0 75 1350 0 1350 0 0 -75z
m-5549 -848 c75 -51 115 -188 126 -436 6 -154 -9 -425 -29 -500 -17 -63 -74
-121 -121 -121 -76 0 -132 84 -169 255 -25 115 -37 519 -19 635 14 90 44 155
79 175 40 21 94 18 133 -8z m2782 -10 c46 -20 101 -86 126 -151 33 -88 44
-187 39 -351 -4 -130 -8 -161 -32 -230 -47 -139 -121 -247 -193 -284 -32 -16
-78 -13 -102 7 -22 17 -22 18 -5 57 14 35 16 63 10 210 -4 94 -11 269 -16 390
-4 121 -13 242 -20 268 -14 56 -9 74 22 87 35 13 135 12 171 -3z m-728 -111
c13 -9 19 -25 18 -47 -5 -224 -26 -599 -37 -656 -37 -183 -111 -257 -207 -207
-45 23 -78 102 -88 211 -5 48 -8 221 -7 383 1 268 3 295 18 298 11 2 23 -8 32
-27 13 -25 16 -72 16 -263 0 -207 11 -422 25 -485 7 -31 49 -57 79 -49 55 14
80 175 92 601 7 260 11 276 59 241z m-1127 -22 c18 -13 22 -25 22 -72 0 -32 9
-127 19 -212 11 -85 22 -191 26 -235 3 -44 15 -139 27 -211 11 -73 18 -139 15
-148 -8 -19 -50 -21 -65 -3 -6 7 -16 50 -21 96 -6 46 -13 86 -15 88 -5 5 -128
25 -131 21 -1 -2 -10 -45 -18 -97 -9 -52 -23 -101 -31 -109 -19 -20 -66 -8
-66 16 0 10 18 94 40 188 45 194 84 414 99 560 6 56 13 108 17 117 8 22 52 22
82 1z m-380 -26 c3 -29 -6 -34 -73 -40 l-30 -3 3 -95 c2 -52 9 -171 17 -265 8
-93 17 -229 21 -300 6 -116 5 -133 -10 -148 -19 -19 -42 -22 -50 -8 -3 5 -8
44 -10 88 -2 43 -12 225 -22 406 l-18 327 -36 0 c-56 0 -106 47 -67 64 6 2 71
4 142 3 l130 -2 3 -27z m755 26 c12 -4 14 -30 10 -157 l-4 -152 71 135 c78
147 104 182 134 178 46 -7 42 -32 -21 -134 -84 -138 -93 -157 -93 -206 0 -96
91 -395 143 -472 29 -42 33 -66 15 -84 -61 -61 -132 92 -216 463 l-9 40 -18
-55 c-14 -42 -20 -101 -24 -255 -6 -194 -7 -200 -27 -203 -12 -2 -29 4 -38 13
-14 14 -16 45 -16 213 -1 216 27 650 43 670 10 13 27 15 50 6z m2031 -12 c60
-21 78 -44 54 -69 -15 -15 -24 -15 -69 -5 -29 7 -53 11 -55 10 -2 -3 -7 -232
-5 -255 1 -8 17 -13 45 -13 86 0 89 -62 2 -68 l-46 -3 -1 -147 c0 -81 -3 -160
-5 -177 -3 -16 -3 -44 1 -62 6 -32 6 -32 72 -35 51 -2 68 -7 77 -21 19 -32
-17 -47 -110 -47 -64 0 -85 4 -95 17 -11 13 -14 95 -14 438 0 343 3 425 14
438 17 22 71 21 135 -1z m412 -40 c36 -59 108 -270 180 -525 26 -92 49 -165
52 -163 8 8 20 224 27 481 4 138 9 253 12 258 8 14 42 7 53 -12 13 -25 13
-164 0 -446 -18 -393 -26 -435 -87 -435 -27 0 -37 17 -53 92 -17 85 -208 637
-227 658 -2 2 -3 -160 -2 -361 1 -202 -1 -372 -5 -378 -11 -18 -44 -13 -56 9
-16 30 -16 785 -1 825 29 73 63 72 107 -3z m1804 -1582 l0 -80 -3600 0 -3600
0 0 80 0 80 3600 0 3600 0 0 -80z"/>
<path d="M6030 7201 c0 -410 4 -691 9 -691 5 0 43 6 85 14 253 49 452 225 533
471 36 110 38 273 5 390 -79 274 -290 454 -589 500 l-43 7 0 -691z"/>
<path d="M3945 5756 c-40 -61 -64 -329 -45 -510 29 -283 77 -421 138 -402 48
15 72 159 72 421 0 193 -11 305 -41 401 -32 103 -89 144 -124 90z"/>
<path d="M6724 5574 c4 -99 11 -242 16 -319 5 -77 9 -193 10 -257 0 -65 4
-118 9 -118 18 0 74 75 103 135 35 76 56 171 64 295 15 235 -55 409 -175 435
l-34 7 7 -178z"/>
<path d="M4901 5303 c-18 -109 -35 -208 -38 -220 -5 -23 2 -27 73 -38 l42 -6
-4 68 c-9 156 -27 359 -33 376 -4 10 -21 -69 -40 -180z"/>
</g>
</svg>
